<svg xmlns="http://www.w3.org/2000/svg" version="1.1" xmlns:xlink="http://www.w3.org/1999/xlink" xmlns:svgjs="http://svgjs.dev/svgjs" width="1000" height="3400" viewBox="0 0 1000 3400"><g transform="matrix(1,0,0,1,1.484748562426546,-1.868564580259772)"><svg viewBox="0 0 75 255" data-background-color="#ffffff" preserveAspectRatio="xMidYMid meet" height="3400" width="1000" xmlns="http://www.w3.org/2000/svg" xmlns:xlink="http://www.w3.org/1999/xlink"><g id="tight-bounds" transform="matrix(1,0,0,1,-0.11135614218198953,7.659857656480511)"><svg viewBox="0 0 75.22270949729594 247.2" height="247.2" width="75.22270949729594"><g><svg viewBox="0 0 150.8049989169231 495.5816665126037" height="247.2" width="75.22270949729594"><g transform="matrix(1,0,0,1,0,153.7721695761494)"><svg viewBox="0 0 150.8049989169231 341.8094969364543" height="341.8094969364543" width="150.8049989169231"><g id="textblocktransform"><svg viewBox="0 0 150.8049989169231 341.8094969364543" height="341.8094969364543" width="150.8049989169231" id="textblock"><g><svg viewBox="0 0 150.8049989169231 245.672304" height="245.672304" width="150.8049989169231"><g transform="matrix(1,0,0,1,0,0)"><svg width="150.8049989169231" viewBox="2 -32.5 19.950000762939453 32.5" height="245.672304" data-palette-color="#ff0000"><path d="M2 0L9.35-32.5 14.6-32.5 21.95 0 18.45 0 16.75-7.5 7.2-7.5 5.5 0 2 0ZM16.05-10.5L11.95-28.6 7.85-10.5 16.05-10.5Z" opacity="1" transform="matrix(1,0,0,1,0,0)" fill="#ff0000" class="wordmark-text-0" data-fill-palette-color="primary" id="text-0"></path></svg></g></svg></g><g transform="matrix(1,0,0,1,0,303.669638839104)"><svg viewBox="0 0 150.8049989169231 38.1398580973503" height="38.1398580973503" width="150.8049989169231"><g transform="matrix(1,0,0,1,0,0)"><svg width="150.8049989169231" viewBox="3.5 -37.5 197.67999267578125 50" height="38.1398580973503" data-palette-color="#ca3433"><path d="M15.9-25.25L15.9-25.25Q18.85-25.25 21.5-23.5L21.5-23.5 21.5-37.25 24.75-37.5 24.75-1.15 24.5-1.15Q22.95-0.5 19.33-0.15 15.7 0.2 14.3 0.2L14.3 0.2Q10.1 0.2 7.35-1.9L7.35-1.9Q3.5-4.8 3.5-11.45 3.5-18.1 7.08-21.68 10.65-25.25 15.9-25.25ZM21.5-3.2L21.5-21.35Q19-22.3 16.6-22.3L16.6-22.3Q12-22.3 9.38-19.5 6.75-16.7 6.75-11.55 6.75-6.4 9.6-4.3L9.6-4.3Q11.65-2.7 14.78-2.7 17.9-2.7 21.5-3.2L21.5-3.2ZM31.85-12.3L31.85-11.5Q31.85-2.7 40.25-2.7L40.25-2.7Q43.8-2.7 46.75-3.65L46.75-3.65Q47.5-3.9 47.8-4.05L47.8-4.05 48.55-1.4Q46.8-0.35 42.2 0.1L42.2 0.1Q40.9 0.2 39.45 0.2L39.45 0.2Q35.25 0.2 32.45-1.9L32.45-1.9Q28.6-4.75 28.6-11.4 28.6-18.05 32.07-21.63 35.55-25.2 40.5-25.2 45.45-25.2 47.95-22L47.95-22Q49.85-19.45 49.85-15.25L49.85-15.25Q49.85-14.25 49.75-13.15L49.75-13.15 31.9-13.15Q31.85-12.75 31.85-12.3L31.85-12.3ZM40.7-22.1L40.7-22.1Q37.6-22.1 35.4-20.23 33.2-18.35 32.35-15.4L32.35-15.4 46.9-15.4Q46.65-20.95 42.6-21.85L42.6-21.85Q41.7-22.1 40.7-22.1ZM61.05 0L51.8-25 55.45-25.25 62.7-3.85 70.55-25 74.15-25.25 64.05 0 61.05 0ZM78.84-12.3L78.84-11.5Q78.84-2.7 87.24-2.7L87.24-2.7Q90.79-2.7 93.74-3.65L93.74-3.65Q94.49-3.9 94.79-4.05L94.79-4.05 95.54-1.4Q93.79-0.35 89.19 0.1L89.19 0.1Q87.89 0.2 86.44 0.2L86.44 0.2Q82.24 0.2 79.44-1.9L79.44-1.9Q75.59-4.75 75.59-11.4 75.59-18.05 79.07-21.63 82.54-25.2 87.49-25.2 92.44-25.2 94.94-22L94.94-22Q96.84-19.45 96.84-15.25L96.84-15.25Q96.84-14.25 96.74-13.15L96.74-13.15 78.89-13.15Q78.84-12.75 78.84-12.3L78.84-12.3ZM87.69-22.1L87.69-22.1Q84.59-22.1 82.39-20.23 80.19-18.35 79.34-15.4L79.34-15.4 93.89-15.4Q93.64-20.95 89.59-21.85L89.59-21.85Q88.69-22.1 87.69-22.1ZM104.89 0L101.64 0 101.64-37.25 104.89-37.5 104.89 0ZM110.34-6.4L110.34-6.4Q109.44-8.8 109.44-12L109.44-12Q109.44-18.15 112.89-21.68 116.34-25.2 121.54-25.2L121.54-25.2Q129.69-25.2 132.24-18.6L132.24-18.6Q133.19-16.2 133.19-13L133.19-13Q133.19-6.85 129.74-3.33 126.29 0.2 121.09 0.2L121.09 0.2Q112.94 0.2 110.34-6.4ZM112.69-12.35Q112.69-7.75 115.06-5.23 117.44-2.7 121.19-2.7 124.94-2.7 127.44-5.38 129.94-8.05 129.94-12.65 129.94-17.25 127.59-19.78 125.24-22.3 121.46-22.3 117.69-22.3 115.19-19.63 112.69-16.95 112.69-12.35ZM154.04-3.5Q152.39-1.85 150.36-1.03 148.34-0.2 146.89-0.1 145.44 0 144.04 0 142.64 0 140.99-0.25L140.99-0.25 140.99 12.25 137.74 12.5 137.74-23.7Q138.84-24.05 141.11-24.75 143.39-25.45 145.96-25.45 148.54-25.45 150.41-25.03 152.29-24.6 153.89-23.4L153.89-23.4Q157.64-20.5 157.64-13.8 157.64-7.1 154.04-3.5L154.04-3.5ZM140.99-21.7L140.99-2.8Q142.49-2.45 144.19-2.45L144.19-2.45Q149.09-2.45 151.74-5.35 154.39-8.25 154.39-13.5 154.39-18.75 151.69-21L151.69-21Q149.79-22.55 146.81-22.55 143.84-22.55 140.99-21.7L140.99-21.7ZM164.53-12.3L164.53-11.5Q164.53-2.7 172.93-2.7L172.93-2.7Q176.48-2.7 179.43-3.65L179.43-3.65Q180.18-3.9 180.48-4.05L180.48-4.05 181.23-1.4Q179.48-0.35 174.88 0.1L174.88 0.1Q173.58 0.2 172.13 0.2L172.13 0.2Q167.93 0.2 165.13-1.9L165.13-1.9Q161.28-4.75 161.28-11.4 161.28-18.05 164.76-21.63 168.23-25.2 173.18-25.2 178.13-25.2 180.63-22L180.63-22Q182.53-19.45 182.53-15.25L182.53-15.25Q182.53-14.25 182.43-13.15L182.43-13.15 164.58-13.15Q164.53-12.75 164.53-12.3L164.53-12.3ZM173.38-22.1L173.38-22.1Q170.28-22.1 168.08-20.23 165.88-18.35 165.03-15.4L165.03-15.4 179.58-15.4Q179.33-20.95 175.28-21.85L175.28-21.85Q174.38-22.1 173.38-22.1ZM201.18-24.5L199.88-21.5Q199.08-21.95 198.18-21.95 197.28-21.95 197.18-21.9L197.18-21.9Q195.28-21.9 193.36-20.53 191.43-19.15 190.08-17.45L190.08-17.45 190.08 0 186.83 0 186.83-25 190.08-25.25 190.08-19.65Q191.93-22 193.23-22.95L193.23-22.95Q195.63-24.75 197.83-24.85L197.83-24.85Q198.13-24.9 198.93-24.9 199.73-24.9 201.18-24.5L201.18-24.5Z" opacity="1" transform="matrix(1,0,0,1,0,0)" fill="#ca3433" class="slogan-text-1" data-fill-palette-color="secondary" id="text-1"></path></svg></g></svg></g></svg></g></svg></g><g transform="matrix(1,0,0,1,56.51374950949086,0)"><svg viewBox="0 0 37.77749989794138 37.77749989794138" height="37.77749989794138" width="37.77749989794138"><g><svg></svg></g><g id="icon-0"><svg viewBox="0 0 37.77749989794138 37.77749989794138" height="37.77749989794138" width="37.77749989794138"><g><path d="M0 18.889c0-10.432 8.457-18.889 18.889-18.889 10.432 0 18.889 8.457 18.889 18.889 0 10.432-8.457 18.889-18.889 18.889-10.432 0-18.889-8.457-18.889-18.889zM18.889 15.623c-1.804 0-3.266 1.462-3.266 3.266 0 1.804 1.462 3.266 3.266 3.266 1.804 0 3.266-1.462 3.266-3.266 0-1.804-1.462-3.266-3.266-3.266z" data-fill-palette-color="accent" fill="#ed2647" stroke="transparent"></path></g><g transform="matrix(1,0,0,1,52.83630665885553,52.85314572468385)"><svg viewBox="0 0 -67.89511341976967 -67.92879155142631" height="-67.92879155142631" width="-67.89511341976967"><g><svg xmlns:dc="http://purl.org/dc/elements/1.1/" xmlns:cc="http://creativecommons.org/ns#" xmlns:rdf="http://www.w3.org/1999/02/22-rdf-syntax-ns#" xmlns:svg="http://www.w3.org/2000/svg" xmlns="http://www.w3.org/2000/svg" xmlns:sodipodi="http://sodipodi.sourceforge.net/DTD/sodipodi-0.dtd" xmlns:inkscape="http://www.inkscape.org/namespaces/inkscape" preserveAspectRatio="xMidYMid" viewBox="0 0 63 63.03125" version="1.1" x="0" y="0" height="-67.92879155142631" width="-67.89511341976967" class="icon-s-0" data-fill-palette-color="accent" id="s-0"><path d="M9.5 0C4.253 0 0 4.25 0 9.5L0 53.531C0 58.781 4.253 63.031 9.5 63.031L53.5 63.031C58.747 63.031 63 58.781 63 53.531L63 9.5C63 4.25 58.747 0 53.5 0L9.5 0zM10 3L17 3 17 60.031 10 60.031 10 3zM20 3L35 3 35 60.031 20 60.031 20 3zM38 3L53.5 3C57.09 3 60 5.908 60 9.5L60 53.531C60 57.123 57.09 60.031 53.5 60.031L38 60.031 38 3zM6.969 3.5C6.978 3.496 6.991 3.504 7 3.5L7 59.531C4.653 58.55 3 56.236 3 53.531L3 9.5C3 6.806 4.636 4.487 6.969 3.5z" fill="#ed2647" fill-rule="evenodd" data-fill-palette-color="accent"></path></svg></g></svg></g></svg></g></svg></g><g></g></svg></g><defs></defs></svg><rect width="75.22270949729594" height="247.2" fill="none" stroke="none" visibility="hidden"></rect></g></svg></g></svg>